HIERARCHY
ROOT Hips
{
	OFFSET 0.00000 0.00000 0.00000
	CHANNELS 6 Xposition Yposition Zposition Zrotation Yrotation Xrotation 
	JOINT LHipJoint
	{
		OFFSET 0 0 0
		CHANNELS 3 Zrotation Yrotation Xrotation
		JOINT LeftUpLeg
		{
			OFFSET 1.48416 -1.82041 0.59464
			CHANNELS 3 Zrotation Yrotation Xrotation
			JOINT LeftLeg
			{
				OFFSET 2.43280 -6.68407 0.00000
				CHANNELS 3 Zrotation Yrotation Xrotation
				JOINT LeftFoot
				{
					OFFSET 2.68325 -7.37216 0.00000
					CHANNELS 3 Zrotation Yrotation Xrotation
					JOINT LeftToeBase
					{
						OFFSET 0.15365 -0.42214 1.91990
						CHANNELS 3 Zrotation Yrotation Xrotation
						End Site
						{
							OFFSET 0.00000 -0.00000 0.99320
						}
					}
				}
			}
		}
	}
	JOINT RHipJoint
	{
		OFFSET 0 0 0
		CHANNELS 3 Zrotation Yrotation Xrotation
		JOINT RightUpLeg
		{
			OFFSET -1.70852 -1.82040 0.59464
			CHANNELS 3 Zrotation Yrotation Xrotation
			JOINT RightLeg
			{
				OFFSET -2.50396 -6.87957 0.00000
				CHANNELS 3 Zrotation Yrotation Xrotation
				JOINT RightFoot
				{
					OFFSET -2.67204 -7.34139 0.00000
					CHANNELS 3 Zrotation Yrotation Xrotation
					JOINT RightToeBase
					{
						OFFSET -0.17346 -0.47657 2.02009
						CHANNELS 3 Zrotation Yrotation Xrotation
						End Site
						{
							OFFSET -0.00000 -0.00000 1.04609
						}
					}
				}
			}
		}
	}
	JOINT LowerBack
	{
		OFFSET 0 0 0
		CHANNELS 3 Zrotation Yrotation Xrotation
		JOINT Spine
		{
			OFFSET -0.01022 1.99636 -0.30653
			CHANNELS 3 Zrotation Yrotation Xrotation
			JOINT Spine1
			{
				OFFSET -0.01683 2.01212 0.04808
				CHANNELS 3 Zrotation Yrotation Xrotation
				JOINT Neck
				{
					OFFSET 0 0 0
					CHANNELS 3 Zrotation Yrotation Xrotation
					JOINT Neck1
					{
						OFFSET -0.03080 1.91178 0.03911
						CHANNELS 3 Zrotation Yrotation Xrotation
						JOINT Head
						{
							OFFSET 0.10605 1.89839 -0.23433
							CHANNELS 3 Zrotation Yrotation Xrotation
							End Site
							{
								OFFSET 0.03474 1.92469 -0.08609
							}
						}
					}
				}
				JOINT LeftShoulder
				{
					OFFSET 0 0 0
					CHANNELS 3 Zrotation Yrotation Xrotation
					JOINT LeftArm
					{
						OFFSET 3.78977 1.27972 -0.24661
						CHANNELS 3 Zrotation Yrotation Xrotation
						JOINT LeftForeArm
						{
							OFFSET 5.64147 -0.00000 -0.00000
							CHANNELS 3 Zrotation Yrotation Xrotation
							JOINT LeftHand
							{
								OFFSET 2.86444 -0.00000 -0.00000
								CHANNELS 3 Zrotation Yrotation Xrotation
								JOINT LeftFingerBase
								{
									OFFSET 0 0 0
									CHANNELS 3 Zrotation Yrotation Xrotation
									JOINT LeftHandIndex1
									{
										OFFSET 0.72212 -0.00000 -0.00000
										CHANNELS 3 Zrotation Yrotation Xrotation
										End Site
										{
											OFFSET 0.58219 -0.00000 -0.00000
										}
									}
								}
								JOINT LThumb
								{
									OFFSET 0 0 0
									CHANNELS 3 Zrotation Yrotation Xrotation
									End Site
									{
										OFFSET 0.59108 -0.00000 0.59108
									}
								}
							}
						}
					}
				}
				JOINT RightShoulder
				{
					OFFSET 0 0 0
					CHANNELS 3 Zrotation Yrotation Xrotation
					JOINT RightArm
					{
						OFFSET -3.41176 1.18605 -0.57927
						CHANNELS 3 Zrotation Yrotation Xrotation
						JOINT RightForeArm
						{
							OFFSET -5.44729 -0.00000 -0.00000
							CHANNELS 3 Zrotation Yrotation Xrotation
							JOINT RightHand
							{
								OFFSET -3.08821 -0.00000 -0.00000
								CHANNELS 3 Zrotation Yrotation Xrotation
								JOINT RightFingerBase
								{
									OFFSET 0 0 0
									CHANNELS 3 Zrotation Yrotation Xrotation
									JOINT RightHandIndex1
									{
										OFFSET -0.82105 -0.00000 -0.00000
										CHANNELS 3 Zrotation Yrotation Xrotation
										End Site
										{
											OFFSET -0.66195 -0.00000 -0.00000
										}
									}
								}
								JOINT RThumb
								{
									OFFSET 0 0 0
									CHANNELS 3 Zrotation Yrotation Xrotation
									End Site
									{
										OFFSET -0.67206 -0.00000 0.67206
									}
								}
							}
						}
					}
				}
			}
		}
	}
}
MOTION
Frames: 6
Frame Time: .0083333
3.2795 17.507 0.0817 0 0 0 0 0 0 -21 0 0 0 0 0 0 0 0 0 0 0 0 0 0 21 0 0 0 0 0 0 0 0 0 0 0 0 0 0 0 0 0 0 0 0 0 0 -16 0 0 21 0 0 11 0 0 0 -8 0 0 0 0 0 0 0 0 0 0 0 0 0 0 0 0 0 0 0 0 8 0 0 0 0 0 0 0 0 0 0 0 0 0 0 0 0 0
3.2795 17.5070 0.0817 -3.3907 88.0945 -5.6884 0.0000 0.0000 0.0000 -15.6996 2.5931 -3.6462 1.1092 6.6913 18.8039 0.3487 -10.1723 -11.8618 0.0518 -1.4688 -4.0398 0.0000 0.0000 0.0000 18.3118 0.1036 -2.8274 -1.6194 -8.0237 22.7861 -1.3719 3.6118 -21.2531 -0.0000 -0.0000 0.0000 3.1704 0.3274 2.7508 -1.1320 0.5229 1.3540 -2.9558 0.2854 -0.1134 -4.8938 -4.9737 -4.7483 7.2566 -6.9103 9.0710 2.6611 -3.2170 3.9050 -0.0000 0.0000 0.0000 -84.6694 -4.0485 62.1193 15.1687 -24.3806 -3.2953 -0.0000 0.0000 -47.4246 9.7460 8.1293 1.3913 -7.1250 0.0000 -0.0000 -14.5768 37.8463 2.6346 -0.0000 0.0000 0.0000 89.1844 1.2712 41.8185 -16.0430 25.5789 -3.6645 0.0000 0.0000 11.3146 -3.1307 14.1685 -0.7670 7.1250 -0.0000 -0.0000 16.4899 -16.1472 11.7561
3.2792 17.5094 0.0821 0.0304 88.0612 -2.2542 0.0000 0.0000 0.0000 -15.8364 2.5884 -3.5857 1.0974 6.6567 18.7022 0.3583 -10.0672 -11.9334 0.0605 -1.5867 -4.3648 0.0000 0.0000 0.0000 18.1851 0.1257 -2.8613 -1.6232 -8.0327 22.8136 -1.3715 3.6585 -21.2427 -0.0000 -0.0000 0.0000 3.0345 0.3264 2.7299 -1.1493 0.5178 1.3688 -2.8967 0.2830 -0.0881 -4.8388 -4.9459 -4.8065 7.1948 -6.8698 9.0644 2.6344 -3.1973 3.9062 0.0000 -0.0000 0.0000 -84.6808 -4.1221 62.0572 15.1480 -24.3519 -3.2867 -0.0000 0.0000 -47.1658 9.5914 8.3061 1.3984 -7.1250 0.0000 -0.0000 -14.7445 38.0089 2.6060 0.0000 -0.0000 0.0000 89.1342 1.2504 41.9741 -16.0959 25.6505 -3.6874 0.0000 0.0000 11.1883 -3.2669 14.1160 -0.7976 7.1250 -0.0000 -0.0000 16.4035 -16.1924 11.6721
3.2796 17.5098 0.0820 0.0662 88.0238 -2.2181 0.0000 0.0000 0.0000 -15.8450 2.5722 -3.5364 1.0920 6.6408 18.6556 0.3661 -9.9915 -11.9954 0.0644 -1.6378 -4.5057 0.0000 0.0000 0.0000 18.1764 0.1399 -2.8782 -1.6261 -8.0396 22.8343 -1.3687 3.7237 -21.2094 -0.0000 -0.0000 0.0000 3.0121 0.3263 2.7170 -1.1252 0.5167 1.3767 -2.8590 0.2827 -0.0733 -4.8883 -4.9390 -4.7971 7.2209 -6.8578 9.0275 2.6515 -3.1928 3.8953 -0.0000 0.0000 0.0000 -84.6853 -4.0969 62.2137 15.1967 -24.4195 -3.3068 -0.0000 0.0000 -47.5064 9.8012 8.2108 1.4133 -7.1250 0.0000 -0.0000 -14.5487 37.9300 2.5985 -0.0000 0.0000 0.0000 89.0884 1.2593 41.9998 -16.1088 25.6680 -3.6930 0.0000 0.0000 11.1395 -3.2649 14.1162 -0.7971 7.1250 -0.0000 -0.0000 16.4048 -16.1924 11.6731
3.2797 17.5098 0.0820 1.1607 88.0029 -1.1349 0.0000 0.0000 0.0000 -15.8905 2.5701 -3.5024 1.0883 6.6301 18.6240 0.3666 -9.9501 -11.9864 0.0647 -1.6412 -4.5151 0.0000 0.0000 0.0000 18.1334 0.1483 -2.8725 -1.6280 -8.0440 22.8478 -1.3697 3.7890 -21.2070 -0.0000 -0.0000 0.0000 2.9685 0.3266 2.7113 -1.1205 0.5161 1.3872 -2.8295 0.2826 -0.0599 -4.9176 -4.9287 -4.7177 7.2382 -6.8408 8.9256 2.6652 -3.1881 3.8517 0.0000 0.0000 0.0000 -84.6875 -4.0672 62.3333 15.2417 -24.4817 -3.3255 -0.0000 0.0000 -47.7919 9.9733 8.1880 1.4346 -7.1250 0.0000 -0.0000 -14.4003 37.9195 2.5745 0.0000 0.0000 0.0000 89.0423 1.2770 42.0712 -16.1083 25.6673 -3.6928 0.0000 0.0000 11.0336 -3.3041 14.1324 -0.8076 7.1250 -0.0000 -0.0000 16.3777 -16.1753 11.6584
3.2795 17.5091 0.0819 2.2049 87.9728 -0.1014 0.0000 0.0000 0.0000 -15.9313 2.6261 -3.5139 1.0886 6.6309 18.6262 0.3587 -9.9488 -11.8951 0.0602 -1.5834 -4.3555 0.0000 0.0000 0.0000 18.0917 0.1670 -2.8632 -1.6275 -8.0429 22.8444 -1.3698 3.8017 -21.2058 -0.0000 -0.0000 0.0000 2.9355 0.3421 2.7171 -1.1296 0.5362 1.3906 -2.8209 0.2926 -0.0585 -4.9145 -4.9296 -4.6525 7.2491 -6.8407 8.8292 2.6703 -3.1905 3.8120 -0.0000 -0.0000 0.0000 -84.7101 -4.0877 62.2389 15.1894 -24.4093 -3.3038 -0.0000 0.0000 -47.8665 9.8047 8.0340 1.3836 -7.1250 0.0000 -0.0000 -14.5071 37.7568 2.6541 -0.0000 -0.0000 0.0000 89.0509 1.2676 42.0242 -16.1069 25.6653 -3.6921 0.0000 0.0000 11.0282 -3.3606 14.1712 -0.8236 7.1250 -0.0000 -0.0000 16.3374 -16.1360 11.6417
